<svg width="1024" height="1024" viewBox="0 0 1024 1024" fill="none" xmlns="http://www.w3.org/2000/svg">
  <defs>
    <linearGradient id="bgGradient" x1="176" y1="212" x2="850" y2="862" gradientUnits="userSpaceOnUse">
      <stop offset="0" stop-color="#0B4E98"/>
      <stop offset="0.58" stop-color="#0A5FAE"/>
      <stop offset="1" stop-color="#1DA4ED"/>
    </linearGradient>
    <linearGradient id="orangeGradient" x1="672" y1="590" x2="954" y2="954" gradientUnits="userSpaceOnUse">
      <stop offset="0" stop-color="#FFA11A"/>
      <stop offset="1" stop-color="#F57C00"/>
    </linearGradient>
    <linearGradient id="shadowGradient" x1="335" y1="824" x2="600" y2="824" gradientUnits="userSpaceOnUse">
      <stop offset="0" stop-color="#5F2A00" stop-opacity="0.65"/>
      <stop offset="1" stop-color="#5F2A00" stop-opacity="0"/>
    </linearGradient>
    <filter id="softShadow" x="304" y="206" width="484" height="516" filterUnits="userSpaceOnUse" color-interpolation-filters="sRGB">
      <feOffset dy="18"/>
      <feGaussianBlur stdDeviation="18"/>
      <feColorMatrix type="matrix" values="0 0 0 0 0.0156863 0 0 0 0 0.152941 0 0 0 0 0.313726 0 0 0 0.22 0"/>
    </filter>
  </defs>

  <rect x="158" y="134" width="708" height="708" rx="138" fill="url(#bgGradient)"/>

  <path d="M677 580C731 645 779 713 860 842H678L564 811C611 734 646 663 677 580Z" fill="url(#orangeGradient)"/>
  <path d="M577 810C675 786 770 720 851 614C850 679 850 746 850 842H363C430 839 504 829 577 810Z" fill="url(#orangeGradient)"/>
  <path d="M336 813C437 816 537 801 625 762C728 717 815 638 864 543C838 670 753 774 628 833C539 874 433 886 336 813Z" fill="url(#shadowGradient)"/>

  <path d="M360 262C463 182 623 188 715 239" stroke="#F4F4F4" stroke-width="32" stroke-linecap="round"/>
  <path d="M352 260C286 322 257 425 264 525C268 584 283 637 323 694" stroke="#F4F4F4" stroke-width="32" stroke-linecap="round"/>

  <g filter="url(#softShadow)">
    <path d="M433 478L515 548" stroke="#F4F4F4" stroke-width="34" stroke-linecap="round"/>
    <path d="M514 548L702 390" stroke="#F4F4F4" stroke-width="34" stroke-linecap="round"/>
  </g>

  <path d="M433 478L515 548" stroke="#F4F4F4" stroke-width="34" stroke-linecap="round"/>
  <path d="M514 548L702 390" stroke="#F4F4F4" stroke-width="34" stroke-linecap="round"/>

  <circle cx="515" cy="548" r="34" fill="#FF8B00" stroke="#F4F4F4" stroke-width="12"/>

  <path d="M515 302V334" stroke="#F4F4F4" stroke-width="18" stroke-linecap="round"/>
  <path d="M515 688V739" stroke="#F4F4F4" stroke-width="18" stroke-linecap="round"/>
  <path d="M380 540H346" stroke="#F4F4F4" stroke-width="18" stroke-linecap="round"/>
  <path d="M686 540H720" stroke="#FF8B00" stroke-width="18" stroke-linecap="round"/>

  <path d="M334 811C534 831 753 751 865 594C858 667 850 749 850 842H342C339 831 337 821 334 811Z" fill="#F4F4F4"/>
  <path d="M336 813C430 811 531 791 625 752C727 709 813 635 862 546" stroke="#F4F4F4" stroke-width="7" stroke-linecap="round"/>
</svg>
